<?xml version="1.0" encoding="UTF-8"?>
<svg width="161px" height="85px" viewBox="0 0 161 85" version="1.1" xmlns="http://www.w3.org/2000/svg" xmlns:xlink="http://www.w3.org/1999/xlink">
    <title>google-partner</title>
    <g id="Page-1" stroke="none" stroke-width="1" fill="none" fill-rule="evenodd">
        <g id="About-Us" transform="translate(-77.000000, -2001.000000)">
            <g id="google-partner" transform="translate(77.000000, 2001.314554)">
                <g id="Group" transform="translate(34.000000, 39.685446)" fill="#013A67" fill-rule="nonzero">
                    <path d="M3.76033609,20.3067814 L3.76033609,33.8913179 L0.093678062,33.8913179 L0.093678062,0.420140304 L9.89146918,0.420140304 C12.2415655,0.346360179 14.5175847,1.38167635 16.2029297,3.29109905 C17.9339724,5.08113592 18.9012718,7.66775311 18.8477322,10.3634608 C18.9095767,13.061059 17.9408162,15.6515833 16.2029297,17.4358226 C14.5138419,19.3384601 12.2403711,20.3726171 9.89146918,20.3067814 L3.76033609,20.3067814 Z M3.76033609,4.48149658 L3.76033609,16.1754017 L9.95157833,16.1754017 C11.321209,16.2334306 12.6497383,15.6245178 13.6182364,14.4948405 C14.5626139,13.3988172 15.1018844,11.9162268 15.1209651,10.3634608 C15.112423,8.8285734 14.5702441,7.36325136 13.6182364,6.30210457 C12.6796193,5.10594702 11.3423217,4.4419378 9.95157833,4.48149658 L3.76033609,4.48149658 Z" id="Shape"></path>
                    <path d="M28.7657417,10.2234141 C31.4706533,10.2234141 33.6345826,11.0636947 35.1974205,12.7442559 C36.8235608,14.5688754 37.6991422,17.1188689 37.6017864,19.7465943 L37.6017864,33.8913179 L34.0553467,33.8913179 L34.0553467,30.6702422 L33.8750192,30.6702422 C32.6022955,33.1521069 30.2851888,34.6487396 27.8039953,34.5915517 C25.8014771,34.6894779 23.8432194,33.887281 22.3340628,32.3508034 C20.9250823,30.9586909 20.13009,28.9006551 20.1701335,26.7489327 C20.1128969,24.5424823 20.9611322,22.436182 22.4542811,21.0770386 C24.017119,19.6765709 26.06083,18.9763371 28.6455234,18.9763371 C30.5208693,18.9098801 32.3806653,19.3913346 34.0553467,20.3768048 L34.0553467,19.3964774 C34.0473489,17.9268574 33.4737175,16.5389648 32.4925088,15.6152146 C31.5359842,14.5599659 30.2633048,13.9820065 28.9460691,14.0046768 C26.9725835,13.9705671 25.1268528,15.1385555 24.0772281,17.0857057 L20.771225,14.7049107 C22.5744994,11.6939051 25.2193019,10.2234141 28.7657417,10.2234141 L28.7657417,10.2234141 Z M23.9569483,26.8189561 C23.9507376,27.9393333 24.4240996,28.9896897 25.2193019,29.6198915 C26.0060357,30.4024625 27.0099968,30.8254919 28.0444319,30.810289 C29.6031194,30.7992932 31.0945283,30.0690826 32.1919631,28.7796109 C33.382744,27.5878062 34.0640477,25.8468394 34.055429,24.0180207 C32.9132729,22.96767 31.2903259,22.4775063 29.2466148,22.4775063 C27.9022392,22.4260088 26.5778353,22.8668223 25.4597385,23.7379272 C24.5589025,24.41955 23.9985007,25.568536 23.9569483,26.8189561 L23.9569483,26.8189561 Z" id="Shape"></path>
                    <path d="M41.7493176,10.9236479 L45.2957574,10.9236479 L45.2957574,14.7049107 L45.4159756,14.7049107 C46.5580495,11.7639285 48.7820879,10.2934375 52.2083094,10.2934375 L52.9897283,10.2934375 L52.9897283,14.8449574 L51.3667813,14.6348873 C49.7965157,14.5824305 48.268869,15.2341196 47.0990318,16.4554953 C46.0035,17.6795504 45.3938744,19.378899 45.4159756,21.147062 L45.4159756,33.8212945 L41.7493176,33.8212945 L41.7493176,10.9236479 Z M64.7711213,34.2414348 C63.3004123,34.3033729 61.8703217,33.6723253 60.8039175,32.4908502 C59.6718343,31.2425779 59.0767782,29.471059 59.1809705,27.6592367 L59.1809705,14.9149808 L55.69464,14.9149808 L55.69464,10.9236479 L59.1809705,10.9236479 L59.1809705,3.92130951 L62.8476286,3.92130951 L62.8476286,10.9236479 L67.6563604,10.9236479 L67.6563604,14.9149808 L62.8476286,14.9149808 L62.8476286,26.258769 C62.8476286,27.7992835 63.0880652,28.8496342 63.6290475,29.4098213 C64.0937063,29.9362687 64.7247354,30.2151033 65.3722128,30.1800785 L66.2137409,30.1800785 L66.9951598,29.8299616 L68.1372336,33.6112244 C67.0573442,34.0576157 65.9166969,34.27117 64.7711213,34.2414348 L64.7711213,34.2414348 Z" id="Shape"></path>
                    <path d="M71.3831276,10.9236479 L74.9295673,10.9236479 L74.9295673,14.1447236 L75.1098948,14.1447236 C75.7084386,12.9280217 76.6096662,11.9513951 77.6945881,11.3437882 C78.7882005,10.5987205 80.0342727,10.2116282 81.301137,10.2234141 C83.7055029,10.2234141 85.5688865,10.9936713 86.8912878,12.6042091 C88.213689,14.214747 88.8147805,16.5255186 88.8147805,19.4665008 L88.8147805,33.8913179 L85.1481225,33.8913179 L85.1481225,19.7465943 C85.0279042,16.035355 83.4049572,14.1447236 80.2792815,14.1447236 C78.8245363,14.1334915 77.4477298,14.9095688 76.5525143,16.2454251 C75.5728598,17.6458486 75.0605362,19.4114555 75.1098948,21.2170854 L75.1098948,33.8913179 L71.3831276,33.8913179 L71.3831276,10.9236479 Z" id="Path"></path>
                    <path d="M101.978684,34.5915517 C99.2816092,34.7002005 96.6751056,33.4499128 94.8256953,31.1604059 C92.9553058,28.7773942 91.9624538,25.6344317 92.0606745,22.4074829 C91.9773248,19.195904 92.9441511,16.0673151 94.7655861,13.6545599 C96.5452239,11.3746949 99.0945014,10.1202323 101.738247,10.2234141 C104.683596,10.2234141 106.967743,11.2737648 108.710908,13.5145131 C110.454074,15.7552614 111.295602,18.7662669 111.295602,22.7575998 L111.295602,23.1777401 L95.7874417,23.1777401 C95.7870362,25.2221904 96.4781053,27.1845049 97.7109344,28.6395641 C98.9114248,29.962896 100.506352,30.6910272 102.159011,30.6702422 C104.503268,30.6702422 106.366652,29.3397979 107.689053,26.5388626 L110.995056,28.4294939 C110.151914,30.3077272 108.883977,31.8816514 107.328398,32.9810139 C105.699118,34.0604569 103.852907,34.6162609 101.978684,34.5915517 L101.978684,34.5915517 Z M96.0879874,19.6765709 L107.388507,19.6765709 C107.31046,18.1367838 106.703895,16.6983284 105.705451,15.685238 C104.576462,14.6013213 103.13894,14.0514452 101.678138,14.1447236 C100.363301,14.1138905 99.082941,14.6359292 98.0715893,15.6152146 C97.0268516,16.6607879 96.3258024,18.0961619 96.0879874,19.6765709 L96.0879874,19.6765709 Z" id="Shape"></path>
                    <path d="M118.328372,33.8913179 L114.661714,33.8913179 L114.661714,10.9236479 L118.208154,10.9236479 L118.208154,14.7049107 L118.328372,14.7049107 C118.810311,13.3967243 119.629561,12.2955217 120.672629,11.5538584 C121.68726,10.759524 122.87663,10.3219846 124.09885,10.2934375 C125.023333,10.2711981 125.942505,10.4615587 126.803762,10.8536245 L125.721797,15.0550276 C125.030136,14.7600661 124.292352,14.640695 123.557868,14.7049107 C122.144423,14.6811239 120.797212,15.4015115 119.89121,16.6655654 C118.886633,17.8917324 118.326824,19.5220894 118.328372,21.2170854 L118.328372,33.8913179 Z" id="Path"></path>
                </g>
                <path d="M58.4699967,19.6882802 C57.5318645,19.6563351 56.6306645,20.1274721 56.0116258,20.973488 C55.3270212,21.8215501 54.9624544,22.969302 55.0030633,24.1487074 C54.9668927,25.3497703 55.3296311,26.5189566 56.0116258,27.3995272 C56.6499182,28.2133455 57.5384267,28.6778475 58.4699967,28.6847351 C59.4064294,28.706286 60.3041367,28.2369751 60.9283677,27.3995272 C62.3326653,25.5997854 62.3600081,22.8123551 60.9914028,20.973488 C60.3528199,20.1155141 59.4282229,19.6442297 58.4699967,19.6882802 L58.4699967,19.6882802 Z" id="Path"></path>
                <path d="M83.5602934,19.6880118 C82.6038446,19.6949 81.6916073,20.1594475 81.0362685,20.9733455 C80.3643087,21.8739862 79.9961936,23.0297526 80.0007711,24.2244839 C79.9807308,25.3997488 80.3519694,26.5382157 81.0362685,27.4000145 C81.6916073,28.2139125 82.6038446,28.67846 83.5602934,28.6853482 C84.4822035,28.6932454 85.3594895,28.2223479 85.9548811,27.4000145 C87.348373,25.5670775 87.348373,22.8062826 85.9548811,20.9733455 C85.3777497,20.1233879 84.4882501,19.6459346 83.5602934,19.6880118 L83.5602934,19.6880118 Z" id="Path"></path>
                <path d="M70.5315039,19.6882803 C69.5736921,19.6442279 68.649495,20.1155333 68.0111883,20.9735455 C67.3268798,21.8216454 66.9624707,22.9694486 67.003062,24.1489066 C66.966907,25.3500231 67.3294886,26.5192615 68.0111883,27.3998714 C68.6641818,28.2329607 69.5784533,28.6992044 70.5315039,28.6851366 C71.4626711,28.6782487 72.3507953,28.2137261 72.9888117,27.3998714 C73.6705114,26.5192615 74.033093,25.3500231 73.996938,24.1489066 C74.0375293,22.9694486 73.6731202,21.8216454 72.9888117,20.9735455 C72.3700407,20.1274918 71.4692304,19.6563338 70.5315039,19.6882803 L70.5315039,19.6882803 Z" id="Path"></path>
                <path d="M102.204759,20.2125779 C101.830096,19.8536754 101.395894,19.6708379 100.955093,19.6863581 C100.158029,19.6780305 99.3953821,20.1872283 98.853384,21.0896109 C98.2820324,22.0759201 97.9771223,23.3627149 98.0013396,24.685446 L103,21.5281273 C102.847608,20.9546361 102.564813,20.4868154 102.204759,20.2125779 L102.204759,20.2125779 Z" id="Path"></path>
                <path d="M43.3603347,19.6773284 L43.3603347,22.6963346 L49.3991664,22.6963346 C49.2888278,24.4286903 48.5641344,26.0232176 47.4063519,27.0810816 C46.2637532,28.1755412 44.8255886,28.7376472 43.3603347,28.6624658 C41.5905891,28.7039161 39.8854254,27.8712262 38.650046,26.3622706 C37.4071826,24.8481496 36.7319244,22.7998333 36.7780082,20.6836638 C36.7319244,18.5674942 37.4071826,16.519178 38.650046,15.005057 C39.8854254,13.4961013 41.5905891,12.6634115 43.3603347,12.7048618 C45.0512209,12.6760235 46.6817322,13.4523521 47.8894585,14.8612948 L49.701108,12.7048618 C48.0029441,10.7457919 45.725103,9.66125287 43.3603347,9.68585563 C41.7246827,9.68351094 40.1186114,10.2048919 38.7104343,11.1953587 C37.2971085,12.1715189 36.1132704,13.555937 35.2683003,15.2207003 C34.4383464,16.8716865 34,18.7596798 34,20.6836638 C33.990817,22.6091258 34.4297654,24.5000299 35.2683003,26.1466273 C36.0627904,27.8579465 37.2588957,29.2567102 38.7104343,30.1719689 C40.1186114,31.1624357 41.7246827,31.6838166 43.3603347,31.6814719 C45.6627231,31.7571308 47.897442,30.7499393 49.5803313,28.8781091 C51.1948672,26.9308782 52.0679619,24.2807717 51.995864,21.546237 C51.9903261,20.9207761 51.9499789,20.2964391 51.8750873,19.6773284 L43.3603347,19.6773284 Z" id="Path" fill="#013A67" fill-rule="nonzero"></path>
                <path d="M57.9708667,16.6869603 C56.3780322,16.6478191 54.8405032,17.368905 53.7139494,18.6834122 C52.5873955,19.9979194 51.9694134,21.7919686 52.002958,23.6505504 C51.9516466,25.5135288 52.5698131,27.3167813 53.7080748,28.6245434 C54.8308221,29.9573556 56.3692761,30.7010517 57.9708667,30.6851976 C61.3004842,30.6851976 63.9996725,27.5356788 63.9996725,23.6505504 C64.0164945,21.7853536 63.3847185,19.9918408 62.2486198,18.6795866 C61.1125211,17.3673324 59.5691173,16.6483972 57.9708667,16.6869603 L57.9708667,16.6869603 Z M60.3458508,26.7060033 C59.7427934,27.4931224 58.875536,27.9342288 57.9708667,27.913973 C57.0708951,27.9074993 56.2125245,27.4709129 55.5958826,26.7060033 C54.9370209,25.8783529 54.5865864,24.7794322 54.6215302,23.6505504 C54.5822987,22.5420247 54.9344995,21.4632501 55.5958826,20.6661547 C56.1939238,19.8709824 57.0645556,19.4281597 57.9708667,19.4581849 C58.8965903,19.4167818 59.7898253,19.859743 60.4067478,20.6661547 C61.7289307,22.39451 61.7025153,25.0144219 60.3458508,26.7060033 L60.3458508,26.7060033 Z" id="Shape" fill="#013A67" fill-rule="nonzero"></path>
                <polygon id="Path" fill="#013A67" fill-rule="nonzero" points="91 10.685446 95 10.685446 95 30.685446 91 30.685446"></polygon>
                <path d="M71.0308223,16.6888298 C69.4280188,16.6299311 67.8748826,17.3420687 66.7352263,18.6584285 C65.59557,19.9747884 64.9695189,21.7797208 65.0037219,23.6504312 C64.9447372,25.5286153 65.5892064,27.3437635 66.7692361,28.6230036 C67.8747661,29.9843848 69.4240874,30.7333322 71.0308223,30.6830694 C72.6319599,30.6989189 74.1699786,29.9554352 75.2924084,28.6230036 C76.4303481,27.315615 77.0483398,25.5128775 76.9970428,23.6504312 C77.0483398,21.7879849 76.4303481,19.9852474 75.2924084,18.6778587 C74.1637688,17.3645004 72.6243697,16.6460098 71.0308223,16.6888298 L71.0308223,16.6888298 Z M73.4051345,26.7050114 C72.7886671,27.4697026 71.9305393,27.9061643 71.0308223,27.9126362 C70.1099608,27.9258542 69.2265688,27.4877753 68.5956302,26.7050114 C67.9369549,25.8775975 67.5866195,24.7789905 67.6215534,23.6504312 C67.582333,22.542222 67.9344342,21.4637555 68.5956302,20.6668877 C69.2123782,19.8607064 70.1053605,19.4178717 71.0308223,19.459263 C71.936877,19.4292463 72.8072625,19.8719425 73.4051345,20.6668877 C74.0663305,21.4637555 74.4184318,22.542222 74.3792114,23.6504312 C74.4141452,24.7789905 74.0638099,25.8775975 73.4051345,26.7050114 L73.4051345,26.7050114 Z" id="Shape" fill="#013A67" fill-rule="nonzero"></path>
                <path d="M100.924212,27.9241189 C99.6755047,27.9875241 98.5225494,27.1389776 98.0237625,25.7894598 L106,21.9470735 L105.69787,21.1643652 C105.510132,20.5077808 105.245753,19.8851361 104.912331,19.3143273 C104.556125,18.7880506 104.150732,18.310675 103.70381,17.8912213 C103.288269,17.5098585 102.81736,17.220542 102.314011,17.0373577 C100.312216,16.2171898 98.0880224,16.8580386 96.6339635,18.6739296 C95.5447968,20.0093225 94.9569342,21.8040283 95.0024604,23.6548007 C94.979834,25.5143406 95.5889385,27.3074836 96.6943896,28.6356719 C97.9605911,30.1186213 99.7232124,30.8578783 101.500414,30.6513557 C103.277616,30.4448331 104.883527,29.3141304 105.879148,27.5683423 L103.824662,26.0029257 C103.219357,27.2082479 102.113288,27.9408835 100.924212,27.9241189 L100.924212,27.9241189 Z M98.5071708,20.8299819 C99.0837394,19.901203 99.8950302,19.3771102 100.742934,19.3856814 C101.21185,19.3697071 101.673747,19.557893 102.072307,19.9272941 C102.455327,20.2095535 102.75616,20.6910588 102.918272,21.2813257 L97.6007802,24.5310017 C97.5750183,23.1695783 97.8993765,21.8451424 98.5071708,20.8299819 L98.5071708,20.8299819 Z" id="Shape" fill="#013A67" fill-rule="nonzero"></path>
                <path d="M87.4471545,18.237134 L87.3195122,18.237134 C86.4966729,17.1766623 85.2665874,16.6049263 84.0008131,16.6946235 C82.4018286,16.7064518 80.8780245,17.442022 79.788618,18.7279328 C78.6086651,20.0277655 77.9631557,21.8006623 78.0016262,23.6359207 C77.9656886,25.4500387 78.6121479,27.2001801 79.788618,28.4737945 C80.8780245,29.7597053 82.4018286,30.4952755 84.0008131,30.5071038 C85.2756018,30.568567 86.5032917,29.9720071 87.3195122,28.8944792 L87.4471545,28.8944792 L87.4471545,29.5956204 C87.4471545,32.5404131 86.298374,33.9426954 84.0646342,33.9426954 C83.3718646,33.9589501 82.6953383,33.7112054 82.1500001,33.2415543 C81.5966777,32.8021272 81.1746303,32.1920447 80.9373985,31.4887014 L78.5121953,32.6105272 C78.748216,33.1865715 79.0483373,33.7282449 79.4056912,34.2231519 C79.7490316,34.7534398 80.1824598,35.2057972 80.6821139,35.55532 C81.1811177,35.9054542 81.7168545,36.1879641 82.2776424,36.3966894 C82.8618372,36.5635605 83.4612769,36.6576386 84.0646342,36.6771458 C85.7118435,36.7699908 87.3158961,36.0804274 88.4682927,34.7840648 C89.4894309,33.5921248 90,31.7691579 90,29.4553921 L90,17.1153082 L87.4471545,17.1153082 L87.4471545,18.237134 Z M86.6174797,26.5807135 C86.0303444,27.3432952 85.1652237,27.7799768 84.2560976,27.7726534 C83.3129118,27.7662657 82.4133246,27.3354728 81.7670733,26.5807135 C81.0922633,25.781534 80.7261727,24.7257895 80.7459351,23.6359207 C80.7414211,22.5279999 81.1044315,21.4562129 81.7670733,20.6210138 C82.4133246,19.8662545 83.3129118,19.4354617 84.2560976,19.4290739 C85.1711865,19.3900541 86.0483514,19.8328151 86.6174797,20.6210138 C87.9916482,22.3207675 87.9916482,24.8809598 86.6174797,26.5807135 L86.6174797,26.5807135 Z" id="Shape" fill="#013A67" fill-rule="nonzero"></path>
                <polygon id="Path" fill="#013A67" fill-rule="nonzero" points="0 0.685446009 19 0.685446009 19 83.685446 0 83.685446"></polygon>
            </g>
        </g>
    </g>
</svg>