<?xml version="1.0" encoding="UTF-8"?>
<svg width="85px" height="102px" viewBox="0 0 85 102" version="1.1" xmlns="http://www.w3.org/2000/svg" xmlns:xlink="http://www.w3.org/1999/xlink">
    <title>hubspot-partner</title>
    <g id="Page-1" stroke="none" stroke-width="1" fill="none" fill-rule="evenodd">
        <g id="About-Us" transform="translate(-917.000000, -1992.000000)" fill="#013A67" fill-rule="nonzero">
            <g id="hubspot-partner" transform="translate(917.000000, 1992.000000)">
                <path d="M33.2028087,95.8407757 C33.2028087,96.2595853 32.8746166,96.560556 32.4223479,96.560556 C31.9699866,96.560556 31.6418642,96.2595853 31.6418642,95.8407757 C31.6418642,95.4185792 31.9699871,95.1208544 32.4223479,95.1208544 C32.8746166,95.1208544 33.2028087,95.4185803 33.2028087,95.8407757 Z M31.746525,101.887617 L33.0949475,101.887617 L33.0949475,97.2403042 L31.746525,97.2403042 L31.746525,101.887617 Z M24.6942313,100.919599 C24.3393215,100.919599 24.1051485,100.708195 24.1051485,100.181379 L24.1051485,98.3206566 L25.1960204,98.3206566 L25.1960204,97.2403042 L24.1051485,97.2403042 L24.1051485,96.0060319 L22.9899086,96.0060319 L22.8322962,97.240304 L22.1351445,97.2931784 L22.1351445,98.3206563 L22.7566801,98.3206563 L22.7566801,100.197937 C22.7566801,101.274855 23.2036054,101.999998 24.3282196,101.999998 C24.6720037,101.999481 25.0134746,101.942574 25.3395828,101.83145 L25.1269684,100.831445 C24.9884329,100.884865 24.842235,100.914647 24.6942313,100.919599 L24.6942313,100.919599 Z M11.494575,100.808205 C10.6206708,100.808205 10.0488627,100.079017 10.0488627,98.8239524 C10.0488627,97.5999356 10.696241,96.8618096 11.5161335,96.8618096 C11.9488017,96.8618096 12.2713736,97.062347 12.5713968,97.3477471 L13.2838883,96.4624284 C12.8813468,96.041408 12.2585905,95.6700639 11.4858916,95.6700639 C9.97504312,95.6700639 8.66372616,96.8447345 8.66372616,98.8702897 C8.66372616,100.926752 9.92973785,102 11.4459991,102 C12.2197113,102 12.8802643,101.693714 13.3767097,101.104191 L12.6641722,100.237595 C12.3717721,100.561521 11.9854687,100.808205 11.4945742,100.808205 L11.494575,100.808205 Z M20.1544307,98.0525208 L20.1209644,98.0525208 L20.0237897,97.2403042 L18.9237503,97.2403042 L18.9237503,101.887617 L20.2721498,101.887617 L20.2721498,99.1944989 C20.5148909,98.5609453 20.9314359,98.3350526 21.2745531,98.3350526 C21.469916,98.3350526 21.6037585,98.3692046 21.765655,98.4100367 L21.9901769,97.2215829 C21.8585455,97.1619815 21.7074284,97.1277815 21.4472747,97.1277815 C20.9832827,97.1277815 20.4857775,97.4319508 20.1544299,98.0525208 L20.1544307,98.0525208 Z M28.852014,96.999358 L28.852014,97.2461842 L28.2466013,97.2931787 L28.2466013,98.3206566 L28.852014,98.3206566 L28.852014,101.887617 L30.2004136,101.887617 L30.2004136,98.3206566 L31.0193849,98.3206566 L31.0193849,97.2403042 L30.2004136,97.2403042 L30.2004136,96.9596553 C30.2004136,96.4781396 30.3903638,96.2930788 30.7194306,96.2930788 C30.8813297,96.2964818 31.0412103,96.3304864 31.1909779,96.3933711 L31.433857,95.3780767 C31.1431898,95.2687697 30.8358902,95.2127261 30.5261408,95.2127261 C29.2977408,95.2127261 28.8520132,96.018451 28.8520132,96.999358 L28.852014,96.999358 Z M17.9930322,99.3585306 C17.9938854,99.5627159 17.9750846,99.7664941 17.9368719,99.9669178 L15.2144136,99.9669178 C15.335358,100.641209 15.7873504,100.950553 16.394698,100.950553 C16.7388978,100.950553 17.0485715,100.843628 17.3788362,100.646384 L17.824702,101.476476 C17.3584292,101.806049 16.7496076,101.999999 16.2101142,101.999999 C14.9128472,101.999999 13.9080947,101.10419 13.9080947,99.5656077 C13.9080947,98.0579782 14.9614461,97.127782 16.054667,97.127782 C17.3509209,97.127782 17.9930322,98.0900596 17.9930322,99.3585306 L17.9930322,99.3585306 Z M16.8410942,99.0562899 C16.8410942,98.5454205 16.6232518,98.1774626 16.08491,98.1774626 C15.6588754,98.1774626 15.2910441,98.4692603 15.199282,99.0562899 L16.8410942,99.0562899 Z M26.0873366,101.887616 L27.4357373,101.887616 L27.4357373,97.2403042 L26.0873366,97.2403042 L26.0873366,101.887616 Z M26.7631385,95.1208533 C26.3108006,95.1208533 25.9826777,95.4185782 25.9826777,95.8407746 C25.9826777,96.2595842 26.3108006,96.5605549 26.7631385,96.5605549 C27.2154302,96.5605549 27.5436223,96.2595842 27.5436223,95.8407746 C27.5436223,95.4185803 27.2154294,95.1208533 26.7631377,95.1208533 L26.7631385,95.1208533 Z M65.9650272,97.1277801 C65.3444817,97.1277801 64.8857869,97.4529772 64.5027082,97.8287437 L64.4692418,97.8287437 L64.3720671,97.2403031 L63.2719594,97.2403031 L63.2719594,101.887618 L64.6203589,101.887618 L64.6203589,98.7524976 C64.9171113,98.4617349 65.1241746,98.3008533 65.4629373,98.3008533 C65.8523039,98.3008533 66.0282043,98.5101404 66.0282043,99.1789277 L66.0282043,101.887618 L67.3766036,101.887618 L67.3766036,99.0024755 C67.3766036,97.8409286 66.9545779,97.1277801 65.9650264,97.1277801 L65.9650272,97.1277801 Z M61.8789686,100.919598 C61.5239898,100.919598 61.2897723,100.708194 61.2897723,100.181378 L61.2897723,98.3206555 L62.3807792,98.3206555 L62.3807792,97.2403031 L61.2897694,97.2403031 L61.2897694,96.0060319 L60.1745291,96.0060319 L60.0169859,97.240304 L59.3197421,97.2931784 L59.3197421,98.3206563 L59.9413487,98.3206563 L59.9413487,100.197937 C59.9413487,101.274855 60.3882738,101.999998 61.5128882,101.999998 C61.8566724,101.999483 62.1981436,101.942576 62.5242511,101.83145 L62.3115679,100.831445 C62.1730806,100.884868 62.0269273,100.91465 61.8789678,100.919599 L61.8789686,100.919598 Z M72.3391302,99.3585306 C72.3399709,99.562713 72.3211857,99.7664884 72.2830166,99.9669178 L69.5605127,99.9669178 C69.6813649,100.641209 70.1335183,100.950553 70.7407968,100.950553 C71.0850657,100.950553 71.3946466,100.843628 71.7248661,100.646384 L72.1707089,101.476476 C71.7045053,101.806049 71.0957757,101.999999 70.5562119,101.999999 C69.258945,101.999999 68.2541235,101.10419 68.2541235,99.5656077 C68.2541235,98.0579782 69.3075211,97.127782 70.4008111,97.127782 C71.6970197,97.127782 72.3391302,98.0900596 72.3391302,99.3585306 L72.3391302,99.3585306 Z M71.1871933,99.0562899 C71.1871933,98.5454205 70.9694197,98.1774626 70.4310547,98.1774626 C70.004882,98.1774626 69.6370738,98.4692603 69.545381,99.0562899 L71.1871933,99.0562899 Z M57.3390297,98.0525208 L57.3055633,98.0525208 L57.2083886,97.2403042 L56.1082809,97.2403042 L56.1082809,101.887617 L57.4566805,101.887617 L57.4566805,99.1944989 C57.6994917,98.5609453 58.1160357,98.3350526 58.459222,98.3350526 C58.6545157,98.3350526 58.7883582,98.3692046 58.9501856,98.4100367 L59.1747999,97.2215829 C59.0430761,97.1619815 58.8920973,97.1277815 58.6318977,97.1277815 C58.1679729,97.1277815 57.6703057,97.4319508 57.3390297,98.0525208 Z M74.5005071,98.0525208 L74.4670637,98.0525208 L74.369889,97.2403042 L73.2697569,97.2403042 L73.2697569,101.887617 L74.6181795,101.887617 L74.6181795,99.1944989 C74.8609667,98.5609453 75.2775118,98.3350526 75.620698,98.3350526 C75.8159918,98.3350526 75.9498343,98.3692046 76.1116617,98.4100367 L76.336276,97.2215829 C76.2045522,97.1619815 76.0535734,97.1277815 75.7933738,97.1277815 C75.3294503,97.1277815 74.8317842,97.4319508 74.5005057,98.0525208 L74.5005071,98.0525208 Z M38.0986331,99.3585306 C38.0994815,99.5627168 38.0806729,99.7664952 38.0424502,99.9669178 L35.3199914,99.9669178 C35.4409358,100.641209 35.8929514,100.950553 36.500299,100.950553 C36.8444756,100.950553 37.1541488,100.843628 37.4844142,100.646384 L37.93028,101.476476 C37.4640072,101.806049 36.8551856,101.999999 36.3157152,101.999999 C35.0184264,101.999999 34.0136957,101.10419 34.0136957,99.5656077 C34.0136957,98.0579782 35.0670241,97.127782 36.160245,97.127782 C37.4565216,97.127782 38.0986331,98.0900596 38.0986331,99.3585306 L38.0986331,99.3585306 Z M36.9466725,99.0562899 C36.9466725,98.5454205 36.7288301,98.1774626 36.1904883,98.1774626 C35.7643845,98.1774626 35.3965533,98.4692603 35.3048835,99.0562899 L36.9466725,99.0562899 Z M50.6621917,97.7463282 C50.6621917,99.1814198 49.5893775,99.8161963 48.322491,99.8161963 L47.5834891,99.8161963 L47.5834891,101.887617 L46.2317941,101.887617 L46.2317941,95.7823974 L48.2857984,95.7823974 C49.6012842,95.7823974 50.6621917,96.2628783 50.6621917,97.7463282 L50.6621917,97.7463282 Z M49.3375388,97.7463282 C49.3375388,97.1074592 48.9373237,96.8782266 48.2059681,96.8782266 L47.583488,96.8782266 L47.583488,98.7203202 L48.2426359,98.7203202 C48.9858982,98.7203202 49.3375388,98.3820457 49.3375388,97.7463282 L49.3375388,97.7463282 Z M41.7497599,95.3251554 L43.0981595,95.3251554 L43.0981595,101.887617 L41.9981209,101.887617 L41.9009462,101.426988 L41.8674799,101.426988 C41.5458981,101.755478 41.0959096,101.999999 40.6568153,101.999999 C39.5257747,101.999999 38.7952258,101.083115 38.7952258,99.5656072 C38.7952258,98.0459351 39.7243391,97.1277815 40.6826351,97.1277815 C41.1844471,97.1277815 41.4908961,97.3184871 41.7983587,97.612778 L41.7497599,96.9085686 L41.7497599,95.3251554 Z M41.7497599,98.5486666 C41.5441166,98.357127 41.2751696,98.2520542 40.996846,98.2545166 C40.5600322,98.2545166 40.1770913,98.6665053 40.1770913,99.5501775 C40.1770913,100.462545 40.4856134,100.873311 41.0076941,100.873311 C41.2946114,100.873311 41.5265042,100.762199 41.7497599,100.456947 L41.7497599,98.5486666 Z M54.9765033,99.2307197 L54.9765033,101.887617 L53.8763958,101.887617 L53.7792211,101.411558 L53.7457545,101.411558 C53.3627449,101.755478 52.9332784,101.999999 52.4217697,101.999999 C51.5918348,101.999999 51.0652166,101.38164 51.0652166,100.598683 C51.0652166,99.6196107 51.8281497,99.0894072 53.6281039,98.8955967 C53.6010626,98.4890649 53.4024993,98.2237516 52.9084493,98.2237516 C52.5265913,98.2237516 52.1457236,98.387785 51.7042111,98.6435489 L51.2248789,97.7395075 C51.8023761,97.3790767 52.453163,97.1277815 53.1686718,97.1277815 C54.332095,97.1277815 54.9765033,97.8067294 54.9765033,99.2307186 L54.9765033,99.2307197 Z M53.6281039,99.725689 C52.6692092,99.8578754 52.3564032,100.137678 52.3564032,100.489076 C52.3564032,100.788542 52.5580999,100.935076 52.8784839,100.935076 C53.1837813,100.935076 53.3887027,100.780921 53.6281039,100.537435 L53.6281039,99.725689 Z M9.21876574,86.5055536 L12.1863595,86.5055536 L12.1863595,70 L9.21876574,70 L9.21876574,76.7240488 L2.96819223,76.7240488 L2.96819223,70 L0,70 L0,86.5055536 L2.96819249,86.5055536 L2.96819249,79.6401454 L9.21876601,79.6401454 L9.21876574,86.5055536 Z M19.1202648,86.5055536 C22.0228833,86.5055536 24.3850184,84.094024 24.3850184,81.1291934 L24.3850184,74.0233095 L21.5752671,74.0233095 L21.5752671,81.1291934 C21.5748201,82.5133901 20.4758658,83.6352612 19.1203914,83.6352612 C17.7649171,83.6352612 16.6659627,82.5133901 16.6655158,81.1291934 L16.6655158,74.0233095 L13.8548676,74.0233095 L13.8548676,81.1291934 C13.8548676,84.094024 16.2170013,86.5055536 19.1202648,86.5055536 Z M31.8004669,86.5055536 C28.7866696,86.5055536 26.1042891,83.9107505 26.1042891,80.1221313 L26.1042891,70 L28.9239212,70 L28.9239212,75.4616462 C29.863791,74.5196423 30.8369196,74.1063839 32.2311541,74.1063839 C35.3793697,74.1063839 38.0861418,76.7929175 38.0861418,80.3061566 C38.0861418,83.8645089 35.1507016,86.5055536 31.8004669,86.5055536 Z M32.3011962,83.8415056 C33.9202061,83.8415056 35.3821336,82.2119449 35.3821336,80.3061574 C35.3821336,78.3998522 33.9202061,76.7698681 32.3011962,76.7698681 C30.3905472,76.7698681 28.9294029,78.3998522 28.9294029,80.3061574 C28.9294029,82.2119449 30.3905472,83.8415056 32.3011962,83.8415056 L32.3011962,83.8415056 Z M49.5451536,81.7883373 C49.5451536,75.5890823 42.8222733,77.5180612 42.8222733,74.8318569 C42.8222733,73.3844405 43.7665422,72.9255048 44.8005461,72.9255048 C45.6329225,72.9255048 46.7345044,73.5682311 47.4533067,74.3493064 L49.2965623,72.1450409 C48.3754183,70.8824499 46.5095215,70.009644 44.9806154,70.009644 C41.9223881,70.009644 39.7189252,71.8237482 39.7189252,74.8318566 C39.7189252,80.4111534 46.4420589,78.6427736 46.4420589,81.7660864 C46.4420589,82.7293529 45.5205455,83.5797672 44.4641546,83.5797672 C42.7997473,83.5797672 42.2599085,82.7531558 41.4957086,81.880444 L39.449259,84.0384208 C40.7540807,85.6688751 42.3724701,86.4958627 44.3062427,86.4958627 C47.2067655,86.4958627 49.5451536,84.6589438 49.5451536,81.7883373 L49.5451536,81.7883373 Z M63.2543617,80.1439114 C63.2543617,83.6570082 60.547152,86.3432608 57.3991436,86.3432608 C56.0044025,86.3432608 55.0317113,85.9293437 54.0917725,84.9879514 L54.0917725,90.4756586 L51.2722095,90.4756586 L51.2722095,80.3275142 C51.2722095,76.537954 53.9549357,73.9447505 56.9682952,73.9447505 C60.3180694,73.9447505 63.2543617,76.5849953 63.2543617,80.1439123 L63.2543617,80.1439114 Z M60.5501693,80.1439114 C60.5501693,78.2375594 59.0879885,76.6076693 57.4693472,76.6076693 C55.5589974,76.6076693 54.097669,78.2375594 54.097669,80.1439114 C54.097669,82.0484761 55.5589974,83.6801538 57.4693472,83.6801538 C59.0879885,83.6801538 60.5501693,82.0484761 60.5501693,80.1439123 L60.5501693,80.1439114 Z M84.0098273,83.8415056 C82.3466399,83.8415056 81.8746099,83.1070958 81.8746099,81.9815832 L81.8746099,76.99943 L84.4596775,76.99943 L84.4596775,74.474013 L81.8746099,74.474013 L81.8746099,71.1443295 L79.0198532,72.45288 L79.0198532,82.6016829 C79.0198532,85.1965798 80.7729128,86.5055536 83.1777963,86.5055536 C83.5375662,86.5055536 84.0327217,86.4817505 84.3027333,86.4138239 L85,83.7963471 C84.6852832,83.8186436 84.3256287,83.8415056 84.0098284,83.8415056 L84.0098273,83.8415056 Z" id="Shape"></path>
                <path d="M56.1300433,27.263525 C56.0772606,28.5205734 56.1187014,29.7816816 56.1181735,31.0409442 C56.117668,32.300253 56.1551377,33.560946 56.1081403,34.8184553 C56.0501229,36.3712416 55.2762656,36.8934198 53.7474001,36.5664932 C52.8268116,36.3696268 52.2010171,35.7849329 51.5859216,35.147412 C49.0125131,32.4801871 46.383082,29.8646357 43.8884906,27.1251141 C43.0252308,26.1770914 42.4461809,26.197115 41.6275764,27.021675 C41.0087214,27.6465384 40.3542417,28.2347311 39.6674484,28.7832773 C39.0423196,29.2811874 38.3649822,29.2380494 37.8147459,28.6429286 C37.2557621,28.038442 37.2660478,27.3028799 37.8503782,26.7854537 C40.1047953,24.789199 42.401319,22.8402808 44.7057636,20.9020664 C45.3575018,20.3539129 46.00924,20.6779329 46.5918715,21.1112513 C47.5988778,21.860239 48.624,22.588742 49.588554,23.3901876 C50.9625608,24.5318473 52.3224475,25.5033996 54.2945134,25.2502 C55.6064167,25.0818003 56.185903,25.9331657 56.1300433,27.263525 Z M44.2542971,29.9781328 C43.1274445,28.6739318 42.3692897,28.399879 41.0632202,29.81287 C39.720897,31.2650777 37.7563841,31.1411065 36.5625141,29.871095 C35.3641439,28.5963302 35.4596308,26.7341495 36.854553,25.3337075 C37.6051759,24.58006 38.4283263,23.8979247 39.2343493,23.2018101 C40.0204208,22.5228582 40.9124484,21.7741475 40.0735249,20.6955571 C39.2159361,19.5929294 38.3121075,20.2867835 37.5046841,20.9753316 C36.5984218,21.7482185 35.6572161,22.4801354 34.7585765,23.2616037 C33.4255976,24.4207029 32.1407408,25.5139645 30.1304245,25.2212255 C28.9231007,25.0453976 28.3513057,25.9238918 28.3563567,27.1297742 C28.3616143,28.3873746 28.3575274,29.6450237 28.3560813,30.9026255 C28.3546348,31.9087345 28.3511679,32.9148437 28.3553237,33.9209067 C28.3655862,36.4065824 28.6741326,36.7981932 31.186724,36.6877413 C33.0974441,36.6036798 34.7598391,36.7883659 35.9471889,38.5373267 C36.3838927,39.1805223 37.1007658,39.5787767 37.9033908,39.0432185 C38.6738043,38.529068 38.6555287,37.7847401 38.2809521,37.044657 C38.0049155,36.4992726 37.7768634,35.9423985 38.3636736,35.5358394 C39.0957454,35.0286554 39.4975287,35.7285072 39.9173115,36.1473848 C41.0272664,37.2549493 42.1119201,38.3882581 43.2029568,39.5148307 C43.7916724,40.1227315 44.4551657,40.4249289 45.1783983,39.8029094 C45.9648602,39.126449 45.7577468,38.3442429 45.20549,37.634656 C44.8216377,37.1414979 44.3546968,36.7143156 43.9367276,36.2469943 C43.5571458,35.8225802 43.0944294,35.3720524 43.6693924,34.8000463 C44.2020192,34.2701631 44.6953632,34.5623024 45.1292659,34.9986198 C45.9696126,35.8437568 46.8154695,36.6837729 47.6382067,37.5459807 C48.3069576,38.2468014 49.0538382,38.7329007 49.9065139,37.9597371 C50.8779336,37.0789823 50.2988837,36.2650324 49.5994137,35.5405909 C47.8127414,33.6903143 45.9335441,31.921607 44.2542971,29.978133 L44.2542971,29.9781328 Z M57.3810585,56.1673743 C55.4203105,56.1983783 53.9643171,56.8423121 52.7041644,58.4218115 C50.5919101,61.0692435 48.2871898,61.6105227 45.1730031,60.3089984 C44.1547007,59.883431 43.1949901,59.6445326 42.231514,59.6485938 C41.2680378,59.6445337 40.3083272,59.883431 39.2900249,60.3089984 C36.1758378,61.6105227 33.8711178,61.0692435 31.7588633,58.4218115 C30.4987105,56.8423115 29.0427172,56.1983788 27.0819694,56.1673743 C23.290904,56.1074884 21.4068625,54.6757658 20.4410445,51.0128126 C19.9699481,49.2261118 19.0902036,48.0516029 17.4474614,47.1938241 C13.794288,45.2863369 12.876776,43.1716022 13.6858984,39.1237284 C13.9526365,37.7892624 14.1184238,36.4152571 13.1025552,35.3619037 C11.5655854,33.768148 10.9571479,32.1155212 11.0023313,30.493622 C10.9571479,28.8717227 11.5655854,27.2190965 13.1025552,25.6253402 C14.1184238,24.5719868 13.9526365,23.1979815 13.6858984,21.8635155 C12.876776,17.8156406 13.794288,15.7009065 17.4474614,13.7934206 C19.0902036,12.9356418 19.9699481,11.7611329 20.4410445,9.97443207 C21.4068625,6.31147895 23.290904,4.87975734 27.0819694,4.81987066 C29.0427172,4.78886644 30.4987105,4.14493267 31.7588633,2.56543324 C33.8711178,-0.0819990981 36.1758368,-0.62327928 39.2900249,0.67824494 C40.3083272,1.10381241 41.2680378,1.34271077 42.231514,1.3386496 C43.1949901,1.3427097 44.1547007,1.10381241 45.1730031,0.67824494 C48.2871898,-0.62327928 50.5919101,-0.0819990981 52.7041644,2.56543191 C53.9643171,4.14493186 55.4203105,4.78886457 57.3810585,4.81986932 C61.1721237,4.87975493 63.0561654,6.31147761 64.0219831,9.97443073 C64.4930798,11.7611316 65.3728241,12.9356405 67.0155662,13.7934193 C70.6687409,15.7009065 71.5862516,17.8156411 70.7771292,21.863515 C70.5103911,23.197981 70.3446041,24.5719863 71.3604725,25.6253396 C72.8974423,27.2190954 73.50588,28.8717222 73.4606966,30.4936214 C73.5058786,32.1155207 72.8974423,33.7681469 71.3604725,35.3619032 C70.3446041,36.4152565 70.5103911,37.7892619 70.7771292,39.1237279 C71.5862516,43.1716017 70.6687396,45.2863363 67.0155662,47.1938235 C65.3728241,48.0516023 64.4930798,49.2261113 64.0219831,51.0128121 C63.0561654,54.6757652 61.1721237,56.1074879 57.3810585,56.1673743 Z M68.1439342,30.493622 C68.1439342,16.1143867 56.542548,4.4576944 42.2315153,4.4576944 C27.9204825,4.4576944 16.3190963,16.114387 16.3190963,30.493622 C16.3190963,44.8728569 27.9204825,56.5295495 42.2315166,56.5295495 C56.5425507,56.5295495 68.1439342,44.8728567 68.1439342,30.4936214 L68.1439342,30.493622 Z M65.0916448,30.4934375 C65.0916448,43.1585918 54.8366678,53.4626399 42.2316047,53.4626399 C29.6263579,53.4626399 19.3713818,43.1585918 19.3713818,30.4934375 C19.3713818,17.8282832 29.6263579,7.52460405 42.2316047,7.52460405 C54.8366689,7.52460405 65.0916448,17.8282827 65.0916448,30.4934369 L65.0916448,30.4934375 Z M62.4585198,30.4934375 C62.4585198,19.2873189 53.3847382,10.1702828 42.2316047,10.1702828 C31.0782873,10.1702828 22.0045081,19.2873189 22.0045081,30.4934375 C22.0045081,41.6999252 31.0782875,50.8169611 42.2316047,50.8169611 C53.3847393,50.8169611 62.4585198,41.6999244 62.4585198,30.4934369 L62.4585198,30.4934375 Z M76.9999965,80.1817171 L76.9999965,80.2373583 C76.9999965,81.3493057 76.6756965,82.356799 76.1068623,83.2716952 C75.5407843,84.1840079 74.7804729,84.8953478 73.8233563,85.4179415 C72.9151197,85.9125299 71.9487738,86.1478748 70.9244334,86.1478748 L70.7545594,86.1478748 C69.8805702,86.1489938 69.0157857,85.9685759 68.2144864,85.6179453 C67.8341424,85.4575585 67.4704836,85.2598411 67.1287992,85.0276688 L64.6858428,87.4825253 C64.9567872,88.3400078 64.6030154,89.2719285 63.8325526,89.7302981 C63.0620899,90.1886676 62.0787427,90.052236 61.4607402,89.4012279 C60.8427377,88.7502198 60.7535569,87.7568429 61.2456379,87.0052242 C61.7377189,86.2536054 62.6808943,85.9425664 63.5205567,86.2550048 L65.8899065,83.8742443 C65.4997582,83.3916825 65.1918091,82.8475534 64.9785486,82.2639254 C64.7333911,81.5886184 64.6113332,80.8701887 64.6123748,80.1086365 L64.6123748,79.8821962 C64.6123748,78.797608 64.9368778,77.8033561 65.5052288,76.8996261 C65.7803575,76.4627132 66.1114807,76.0640547 66.4900807,75.7139058 L59.3682316,70.5580972 L58.8502986,70.1629799 C58.4673292,70.3987564 58.0273009,70.5243988 57.5781611,70.5262165 C56.209283,70.5236337 55.1014214,69.4070289 55.1030994,68.0316236 C55.1047812,66.6562183 56.2153671,65.542349 57.5842474,65.5431416 C58.9531277,65.543935 60.0624346,66.6590904 60.062536,68.0344967 C60.0605956,68.2571474 60.0284394,68.4784919 59.9669565,68.6924098 C62.4228619,70.56451 66.6359603,73.7698768 67.9165006,74.7468745 C68.5441374,74.4250636 69.2223868,74.2146142 69.9213298,74.1248095 L69.9213298,71.1637372 C69.0886281,70.8109278 68.5814874,70.0294596 68.5814874,69.1179776 C68.5814874,67.8755096 69.5617695,66.8688921 70.7982514,66.8688921 C71.3909566,66.8693143 71.9591328,67.1066972 72.3773894,67.5286529 C72.7956459,67.9506085 73.0295998,68.52245 73.0276198,69.1179776 C73.0276198,70.0294596 72.5238526,70.8109278 71.6910136,71.1637372 L71.6910136,74.1235629 C72.5238526,74.2364148 73.2539272,74.4993025 73.9619149,74.9133356 C74.9095262,75.4756994 75.6686668,76.2224263 76.2074696,77.1537474 C76.7369283,78.0784246 77.0011028,79.0877478 76.9999965,80.1817171 Z M74.0773993,80.1855004 C74.0773993,80.0717266 74.0727161,79.9700409 74.0636009,79.8537295 C74.0078973,79.3015239 73.8226625,78.7704611 73.5230992,78.3041266 C73.2209108,77.839192 72.8060416,77.4590826 72.3174741,77.1995151 C71.8346008,76.951252 71.3227968,76.839047 70.7824097,76.839047 L70.7269409,76.839047 C70.1308322,76.839047 69.5911801,77.0069395 69.0900533,77.3389412 C68.5898243,77.6613924 68.1821295,78.1095745 67.9073636,78.6390813 C67.6415664,79.1336694 67.5271389,79.6572321 67.5271389,80.209491 L67.5271389,80.3800122 C67.5271389,80.9416838 67.7215101,81.4535276 68.0630945,81.938704 C68.3816985,82.4239382 68.8210295,82.8170442 69.3375055,83.0790255 C69.7830232,83.3136161 70.2794479,83.4336418 70.7824095,83.4283747 L70.9244342,83.4283747 C71.7860864,83.4283747 72.5483499,83.0083437 73.2113153,82.2679374 C73.7888958,81.6298646 74.0773993,80.9443614 74.0773993,80.1855004 Z" id="Shape"></path>
            </g>
        </g>
    </g>
</svg>