<?xml version="1.0" encoding="UTF-8"?>
<svg width="59px" height="50px" viewBox="0 0 59 50" version="1.1" xmlns="http://www.w3.org/2000/svg" xmlns:xlink="http://www.w3.org/1999/xlink">
    <title>invision</title>
    <g id="Page-1" stroke="none" stroke-width="1" fill="none" fill-rule="evenodd">
        <g id="Artboard" transform="translate(-356.000000, -437.000000)" fill-rule="nonzero">
            <g id="invision" transform="translate(356.000000, 437.000000)">
                <path d="M53.5188985,0 L5.33526815,0 C2.38865153,0 0,2.02929688 0,4.53261719 L0,45.4673828 C0,47.9707031 2.38865153,50 5.33526815,50 L53.5188985,50 C56.4655151,50 58.8541667,47.9707031 58.8541667,45.4673828 L58.8541667,4.53261719 C58.8541667,2.02929688 56.4655151,0 53.5188985,0" id="Path" fill="#DC395F"></path>
                <path d="M19.3822999,15.8810573 C21.3454425,15.8810573 22.990007,14.5856216 22.990007,12.8877656 C22.990007,11.1910749 21.3454425,9.89583333 19.3822999,9.89583333 C17.4191572,9.89583333 15.7750541,11.1910749 15.7750541,12.8877656 C15.7750541,14.5854274 17.4191572,15.8810573 19.3822999,15.8810573 M11.9020574,31.9079479 C11.6900565,32.6673413 11.58371,33.4873308 11.58371,34.1562184 C11.58371,36.7919544 13.2813324,38.5416667 16.8890395,38.5416667 C19.8810442,38.5416667 22.3067134,37.0457977 24.0532414,34.6303052 L22.9867774,38.2336365 L28.9281098,38.2336365 L32.323816,26.7671849 C33.1727425,23.8640104 34.817307,22.3570709 37.3110288,22.3570709 C39.2739407,22.3570709 40.4940419,23.3848739 40.4940419,25.0815646 C40.4940419,25.573131 40.440984,26.1085907 40.2287524,26.6894976 L38.4778414,31.9599984 C38.2125518,32.7193918 38.1068974,33.4791736 38.1068974,34.1933141 C38.1068974,36.6954279 39.8571163,38.5255466 43.5178814,38.5255466 C46.6480673,38.5255466 49.1413277,36.8290501 50.5208333,32.7642562 L48.1867467,32.0056397 C47.0194727,34.7287739 46.0113724,35.2211171 45.2155038,35.2211171 C44.4196352,35.2211171 43.9951719,34.7748036 43.9951719,33.8819823 C43.9951719,33.4799505 44.1017491,33.0338311 44.2604614,32.4966234 L45.9585452,27.3618812 C46.3827778,26.1561742 46.5421822,25.0870027 46.5421822,24.1046468 C46.5421822,20.2633981 43.7831709,18.2586772 40.440984,18.2586772 C37.3110288,18.2586772 34.1275542,20.6357145 32.5362783,23.1374399 L33.7030909,18.6471138 L24.6315726,18.6471138 L23.3581828,22.6021743 L27.6025848,22.6021743 L24.9889061,31.4119145 C22.9364877,35.2531631 19.1663773,35.3155072 18.6932391,35.226361 C17.9162868,35.0787551 17.4193879,34.83035 17.4193879,33.9804509 C17.4193879,33.4900498 17.5255037,32.7856202 17.7907933,31.9363038 L21.7701365,18.6471138 L11.6900565,18.6471138 L10.4166667,22.6021743 L14.6075494,22.6021743 L11.9022881,31.9079479" id="Shape" fill="#FFFFFF"></path>
            </g>
        </g>
    </g>
</svg>