<?xml version="1.0" encoding="UTF-8"?>
<svg width="107px" height="102px" viewBox="0 0 107 102" version="1.1" xmlns="http://www.w3.org/2000/svg" xmlns:xlink="http://www.w3.org/1999/xlink">
    <title>mailchimp-partner</title>
    <g id="Page-1" stroke="none" stroke-width="1" fill="none" fill-rule="evenodd">
        <g id="About-Us" transform="translate(-720.000000, -1991.000000)" fill-rule="nonzero">
            <g id="mailchimp-partner" transform="translate(720.000000, 1991.000000)">
                <g id="Group" transform="translate(22.000000, 14.000000)">
                    <path d="M48.0973559,25.0396494 C48.5917288,24.9936175 49.0654915,24.9917171 49.5007458,25.0396494 C49.752678,24.5896773 49.7960678,23.8143147 49.5693559,22.9696932 C49.2328136,21.7145857 48.776678,20.9548486 47.8348475,21.0730956 C46.8927458,21.1913426 46.8580339,22.1007888 47.1948475,23.3561076 C47.3841356,24.0622112 47.7217627,24.6656932 48.0973559,25.0396494 Z" id="Path" fill="#2C333B"></path>
                    <path d="M40.0103051,26.0329243 C40.6844746,26.2630837 41.0985763,26.415749 41.2607458,26.28251 C41.3648814,26.1991036 41.3336949,26.0405259 41.1728814,25.8357052 C40.8398644,25.4129721 40.1559322,24.9841155 39.4299661,24.7433984 C37.9449492,24.2459163 36.1746441,24.411251 34.808678,25.1754223 C34.3579661,25.4328207 33.9303051,25.7890398 33.991322,26.0054741 C34.0111186,26.0755777 34.0783729,26.1281554 34.2367458,26.1454701 C34.6085424,26.1786215 35.9077966,25.6672032 37.4042034,25.5958327 C38.4612881,25.5453665 39.3364068,25.8027649 40.0103051,26.0329243 Z" id="Path" fill="#2C333B"></path>
                    <path d="M38.6543729,26.6353506 C37.7768136,26.743251 37.2924746,26.9685538 36.9816949,27.1782311 C36.7164746,27.3587689 36.5524068,27.5583108 36.5537544,27.6985179 C36.5543051,27.7654542 36.5917288,27.8036733 36.6207458,27.8230996 C36.6608814,27.8505498 36.708339,27.8659641 36.7652881,27.8659641 C36.9632542,27.8659641 37.4077288,27.7272351 37.4077288,27.7272351 C38.6294237,27.3866414 39.4351186,27.4278167 40.2340339,27.4987649 C40.6752542,27.5371952 40.8837966,27.5587331 40.9806102,27.4409084 C41.0088136,27.4071235 41.0437966,27.3338526 40.9553898,27.2223625 C40.7501017,26.9624303 39.863322,26.5236494 38.6543729,26.6353506 Z" id="Path" fill="#2C333B"></path>
                    <ellipse id="Oval" fill="#2C333B" transform="translate(45.754294, 28.234072) rotate(116.167882) translate(-45.754294, -28.234072) " cx="45.7542942" cy="28.2340718" rx="1" ry="1.15353187"></ellipse>
                    <ellipse id="Oval" fill="#2C333B" transform="translate(49.183456, 27.174751) rotate(-89.025968) translate(-49.183456, -27.174751) " cx="49.1834563" cy="27.1747507" rx="1" ry="1"></ellipse>
                    <path d="M16.1640678,35.5150677 C16.0301017,35.5393506 15.8782373,35.5668008 15.7122712,35.5646892 C15.3562034,35.5594104 15.0543729,35.440741 14.8851525,35.238243 C14.6644068,34.97451 14.6771525,34.5813386 14.9209492,34.1309442 C14.9534915,34.0703426 14.9922712,34.0027729 15.0343051,33.9292908 C15.4229153,33.2510598 16.072678,32.1154661 15.3429153,31.033506 C14.7937627,30.2190797 13.8980339,29.7118845 12.8208814,29.6054622 C11.7868475,29.5034741 10.7224407,29.8018367 10.0433898,30.385259 C8.97220339,31.3054741 8.80461017,32.5576255 9.0120678,32.999996 C9.08772881,33.1619522 9.20650847,33.2067171 9.29274576,33.216008 C9.47498305,33.235012 9.74454237,33.131757 9.91349153,32.7782829 C9.92569492,32.7527331 9.94169492,32.713247 9.96176271,32.6632032 C10.0368814,32.4761195 10.1770847,32.1281355 10.4065085,31.8491992 C10.6831186,31.5126175 11.1140339,31.2807689 11.6197966,31.1965179 C12.1350508,31.1105777 12.6616949,31.1870159 13.1026441,31.4116853 C13.8530169,31.7942988 14.1418305,32.5101155 13.8215593,33.1934143 C13.6561356,33.5466773 13.3868475,34.2221633 13.4462373,34.7770797 C13.5661017,35.9008486 14.4536949,36.3518765 15.2509831,36.3998088 C16.0263051,36.4226135 16.5681356,36.0837092 16.7050847,35.8358127 C16.7861695,35.6896932 16.7178305,35.6003745 16.6738983,35.5621554 C16.5537627,35.4445418 16.3557966,35.4804382 16.1640678,35.5150677 Z" id="Path" fill="#2C333B"></path>
                    <path d="M61.4169492,33.5076135 C61.387661,33.4263187 61.1953898,32.8792151 60.9312542,32.219988 C60.6668475,31.5605498 60.3937627,31.0964303 60.3937627,31.0964303 C61.4530169,29.8613825 61.472,28.7568287 61.3312542,28.1315976 C61.1807458,27.3560239 60.7663729,26.6953187 59.9305763,26.0122311 C59.0950508,25.3291434 57.3860339,24.6295857 54.9841356,24.1046534 C54.7094237,24.0446853 53.803661,23.8510558 53.7242034,23.8320518 C53.7179661,23.7917211 53.6580339,21.5188446 53.6032542,20.5430956 C53.5633898,19.8378367 53.4855593,18.7368725 53.0470508,17.6521673 C52.5239322,16.1842151 51.6130169,14.899757 50.475661,14.0779402 C53.6141017,11.5449203 55.5731525,8.75450199 55.5685424,6.36042231 C55.5595932,1.7570239 48.2985763,0.363820717 39.3502373,3.24904781 C39.3407458,3.25221514 37.4679322,3.87047809 37.4543729,3.87575697 C37.4459661,3.86921116 34.0265763,1.25721912 33.9755932,1.22216733 C23.7727458,-5.7064741 -8.12501695,21.9004024 2.07322034,28.6052191 L4.30210169,30.0752829 C3.7239322,31.2412829 3.49667797,32.5772629 3.68244068,34.0139641 C3.92054237,35.859251 5.14305085,37.6280996 7.12433898,38.9949084 C9.00528814,40.2926693 11.4782373,41.1136414 13.8782373,41.1121633 C17.8467797,48.2331673 26.9144407,52.601761 37.5465763,52.847757 C48.951322,53.1112789 58.5250169,48.9445498 62.536678,41.4593028 C62.7991864,40.9339482 63.9124068,38.5668964 63.9124068,36.4775139 C63.9124068,34.3777849 62.3877966,33.5076135 61.4169492,33.5076135 Z M14.7549831,39.1120996 C14.408678,39.1581315 14.0550508,39.176502 13.6987119,39.169745 C10.2538305,39.0975299 6.53315254,36.6831793 6.16352542,33.81949 C5.75484746,30.6542709 7.83186441,28.2183825 11.5094237,27.6408725 C11.9490169,27.5720359 12.4802712,27.5321275 13.0532881,27.5553546 C15.1137627,27.6431952 18.1499661,28.8752869 18.843661,32.3701195 C19.4576271,35.4656574 18.4821695,38.6173625 14.7549831,39.1120996 Z M10.9082034,25.7476534 C8.61884746,26.0941594 6.60094915,27.1045378 5.36705085,28.5000637 C4.62969492,28.0211633 3.25586441,27.0939801 3.01315254,26.7326932 C1.04325424,23.8202271 5.16284746,18.1576733 8.04067797,14.9599363 C15.1530847,7.05723506 26.2926102,1.07520319 31.4494915,2.16054183 C32.288,2.34530279 35.0641356,4.85192829 35.0641356,4.85192829 C35.0641356,4.85192829 29.9094237,7.07877291 25.1292203,10.1829681 C18.6882712,14.0445777 13.8229153,19.6572988 10.9082034,25.7476534 Z M24.0442034,14.9278406 C26.5724746,12.6526414 29.6854237,10.6745378 32.4734915,9.56407171 C32.5700339,9.52585259 32.6725424,9.60714741 32.6202034,9.68105179 C32.3989153,9.99313944 31.9726102,10.6616574 31.8372881,11.1688526 C31.8164068,11.2478247 31.9267797,11.3073705 32.0124746,11.261761 C33.7472542,10.3411235 36.7647458,9.35460558 39.4115254,9.2277012 C39.5254237,9.22221116 39.5802034,9.33581275 39.4898983,9.38986853 C39.0874576,9.6303745 38.6470508,9.96294422 38.3256949,10.2995259 C38.2709153,10.356749 38.3221695,10.4393108 38.4138305,10.4397331 C40.2725424,10.4498685 42.8927458,10.9564303 44.6001356,11.7022311 C44.7159322,11.7526972 44.6334915,11.9269004 44.5041356,11.9038845 C41.9202712,11.4427211 37.6908475,11.0928367 33.2973559,11.9273227 C29.3751864,12.6720677 26.3815593,13.8224422 24.1971525,15.0591793 C24.0875932,15.1216813 23.9547119,15.0080797 24.0442034,14.9278406 Z M61.5332881,37.1853068 C61.0383729,39.521741 59.7627119,41.4177052 57.6189831,43.1620598 C56.3143051,44.2558446 54.7303051,45.2066773 52.9179661,45.8977888 C51.9552542,46.2915936 50.9304407,46.6321873 49.8481356,46.9073227 C41.7675932,48.9622869 33.4964068,46.7031355 30.8295593,41.8516295 C30.6172203,41.4869641 30.4374237,41.1051952 30.2950508,40.7056892 C29.1587797,37.5085857 30.1233898,33.6729482 33.1389831,31.2585976 C33.1392542,31.2583865 33.1384407,31.257753 33.1387119,31.2575418 C33.3244746,31.1036096 33.5143051,30.9226494 33.5143051,30.6948127 C33.5143051,30.5043506 33.3586441,30.3031195 33.2238644,30.1608008 C32.1689492,28.9694622 28.5147119,26.9392032 29.2482712,23.0102351 C29.7749153,20.1879323 32.9453559,18.1999044 35.9010169,18.3177291 C36.1507797,18.3278645 36.4010847,18.3399004 36.6503051,18.3513028 C37.9311186,18.4104263 39.048678,18.5381753 40.1027797,18.5725936 C41.867661,18.6319283 43.4546441,18.4321753 45.3339661,17.212753 C45.9682712,16.8012112 46.4764746,16.4447809 47.3369492,16.3311793 C47.4269831,16.3191434 47.6520678,16.2564303 48.1014237,16.2729004 C48.5602712,16.2919044 48.9971525,16.3900916 49.3898305,16.5936454 C50.8965424,17.3742869 51.1105085,19.2651833 51.1886102,20.6484622 C51.2328136,21.4381833 51.355661,23.348506 51.3976949,23.8970876 C51.4936949,25.1511394 51.9170169,25.3278765 52.7734237,25.5474781 C53.2547797,25.6707928 53.7022373,25.7628566 54.3609492,25.9070757 C56.3555254,26.3431116 57.5381695,26.7854821 58.283661,27.3537012 C58.7284068,27.7088645 58.9350508,28.085988 58.9990508,28.446008 C59.2341695,29.781988 57.6669831,31.4323785 53.5175593,32.932004 C48.9819661,34.570992 43.4795932,34.9861235 39.6781017,34.65651 C39.3865763,34.6311713 38.3498305,34.539741 38.3463051,34.5393187 C35.3052203,34.2202629 33.5707119,37.2805378 35.3957966,39.3768884 C36.5719322,40.7280717 39.7754576,41.6073227 42.9814237,41.607745 C50.3311186,41.6088008 55.9804746,39.1648884 58.0816271,37.0541793 C58.1445424,36.9910438 58.1507797,36.9840757 58.2497627,36.8677291 C58.3533559,36.7463147 58.2679322,36.6793785 58.1393898,36.748004 C56.4227797,37.6627291 48.7967458,41.2941793 40.6397288,40.2016614 C40.6397288,40.2016614 39.6488136,40.074757 38.7438644,39.8006773 C38.0249492,39.5831873 36.5201356,39.0441076 36.3373559,37.842 C42.9201356,39.4271434 47.0649492,37.9287849 47.0649492,37.9287849 C47.1397966,37.9040797 47.1915932,37.8375657 47.1829153,37.7712629 C47.172339,37.6899681 47.0790508,37.6308446 46.9746441,37.6390797 C46.9746441,37.6390797 41.5785763,38.2611434 36.4810847,36.8079721 C37.0362034,35.4029442 38.5125424,35.9103506 40.7444068,36.0505578 C44.7666441,36.2372191 48.3715254,35.7796454 51.035661,35.1843984 C53.3442712,34.6683347 56.3764068,33.6511992 58.731661,32.2039402 C59.5262373,33.5625139 59.8066441,35.0579163 59.8066441,35.0579163 C59.8066441,35.0579163 60.4216949,34.9721873 60.935322,35.2186056 C61.4204746,35.4510876 61.7765424,35.9348446 61.5332881,37.1853068 Z" id="Shape" fill="#013A67"></path>
                </g>
                <g id="Group" transform="translate(19.000000, 73.000000)">
                    <path d="M9.32551172,2.04889628 C8.07785156,2.04889628 7.460625,2.84822473 7.17734766,3.36363032 C7.01886328,3.65150266 6.97492969,3.87925532 6.84636328,3.87925532 C6.66550781,3.87925532 6.79542188,3.6815625 6.64691016,3.24273271 C6.45230859,2.66545213 5.86580859,2.04911569 4.61922656,2.04911569 C3.30822656,2.04911569 2.7470625,2.95047207 2.48049609,3.4459109 C2.29883203,3.7846875 2.2985625,3.87947473 2.15867578,3.87947473 C1.95598828,3.87947473 2.12390625,3.61025266 2.21527734,3.2940758 C2.39505469,2.67137633 2.25813281,2.19546543 2.25813281,2.19546543 L0.180046875,2.19546543 L0.180046875,8.55608378 L3.01632422,8.55608378 L3.01632422,5.39146277 C3.01632422,4.76700798 3.33706641,3.97513963 3.88691016,3.97513963 C4.52192578,3.97513963 4.648875,4.37228059 4.648875,5.10753989 L4.648875,8.55718085 L7.49674219,8.55718085 L7.49674219,5.39124335 C7.49674219,4.83546543 7.77516797,3.97492021 8.37137109,3.97492021 C9.01555078,3.97492021 9.12929297,4.53289229 9.12929297,5.10732048 L9.12929297,8.55586436 L11.92568,8.55586436 L11.92568,4.81549867 C11.9262187,3.155625 11.2073789,2.04889628 9.32551172,2.04889628 Z" id="Path" fill="#013A67"></path>
                    <path d="M57.4659492,2.04889628 C56.2182891,2.04889628 55.6010625,2.84822473 55.3177852,3.36363032 C55.1595703,3.65150266 55.1153672,3.87925532 54.9870703,3.87925532 C54.8062148,3.87925532 54.9269648,3.62780585 54.7878867,3.24273271 C54.5800781,2.66852394 54.0631172,2.04911569 52.7596641,2.04911569 C51.4492031,2.04911569 50.8877695,2.95047207 50.6214727,3.4459109 C50.4395391,3.7846875 50.4392695,3.87947473 50.2991133,3.87947473 C50.0964258,3.87947473 50.2643437,3.61025266 50.3557148,3.2940758 C50.5354922,2.67137633 50.3988398,2.19546543 50.3988398,2.19546543 L48.3207539,2.19546543 L48.3207539,8.55608378 L51.1570312,8.55608378 L51.1570312,5.39146277 C51.1570312,4.76700798 51.4775039,3.97513963 52.0273477,3.97513963 C52.6626328,3.97513963 52.789582,4.37228059 52.789582,5.10753989 L52.789582,8.55718085 L55.6374492,8.55718085 L55.6374492,5.39124335 C55.6374492,4.83546543 55.9156055,3.97492021 56.5120781,3.97492021 C57.1562578,3.97492021 57.27,4.53289229 57.27,5.10732048 L57.27,8.55586436 L60.066387,8.55586436 L60.066387,4.81549867 C60.0669258,3.155625 59.3480859,2.04889628 57.4659492,2.04889628 Z" id="Path" fill="#013A67"></path>
                    <path d="M16.7691563,2.05021277 C14.5964648,2.05021277 13.0374961,2.70055851 13.0374961,2.70055851 L13.0374961,4.61188165 C13.0374961,4.61188165 14.7592617,3.80619016 16.1557031,3.80619016 C17.2704844,3.80619016 17.4074063,4.29548537 17.3567344,4.70184176 C17.3567344,4.70184176 17.0351836,4.63272606 16.0540898,4.63272606 C13.7425898,4.63272606 12.5755195,5.4877859 12.5755195,6.85912899 C12.5755195,8.16003989 13.8870586,8.70375 14.9918672,8.70375 C16.6044727,8.70375 17.3130703,7.82170213 17.5308516,7.40327793 C17.6823281,7.11299202 17.7095508,6.91727394 17.8453945,6.91727394 C18.0001055,6.91727394 17.9480859,7.05748005 17.9408086,7.34644947 C17.927332,7.85242021 17.9569805,8.23507979 18.0553594,8.55718085 L20.1932813,8.55718085 L20.1932813,5.42678856 C20.1930117,3.47267952 19.3434492,2.05021277 16.7691563,2.05021277 Z M16.0786172,7.06932846 C15.400207,7.19680851 15.0490078,7.02676197 15.0490078,6.66077793 C15.0490078,6.15985372 15.6856406,5.95886968 16.5950391,5.95886968 C16.9955625,5.95886968 17.3726367,5.98695479 17.3726367,5.98695479 C17.3726367,6.20154255 16.8004219,6.93373005 16.0786172,7.06932846 Z" id="Shape" fill="#013A67"></path>
                    <rect id="Rectangle" fill="#013A67" x="24.8647969" y="0.269660904" width="2.83627734" height="8.28751995"></rect>
                    <path d="M30.8227852,5.37698138 C30.8227852,4.80540559 31.4755898,4.28473404 32.6736562,4.28473404 C33.9792656,4.28473404 35.0293594,4.79640957 35.2646602,4.91248005 L35.2646602,2.7003391 C35.2646602,2.7003391 34.4353125,2.04999335 32.3960391,2.04999335 C30.2465273,2.04999335 28.4568398,3.07400266 28.4568398,5.27780585 C28.4568398,7.48160904 30.0810352,8.70353059 32.3903789,8.70353059 C34.1943516,8.70353059 35.2695117,7.89674202 35.2695117,7.89674202 L35.2695117,5.795625 C34.9293633,5.95053191 33.9816914,6.48590426 32.6868633,6.48590426 C31.3160273,6.48634309 30.8227852,5.97291223 30.8227852,5.37698138 Z" id="Path" fill="#013A67"></path>
                    <path d="M41.0105273,2.05021277 C39.368543,2.05021277 38.7440391,3.31689495 38.6178984,3.53674867 C38.4917578,3.75660239 38.4294961,3.88320479 38.3262656,3.88035239 C38.1470273,3.87574468 38.2718203,3.61047207 38.3418984,3.43867021 C38.4739687,3.114375 38.7537422,2.26304521 38.7537422,1.21665559 C38.7537422,0.507067819 38.6356875,0.269660904 38.6356875,0.269660904 L36.1872656,0.269660904 L36.1872656,8.55718085 L39.0238125,8.55718085 L39.0238125,5.39255984 C39.0238125,4.87693484 39.2766328,3.9762367 39.9908906,3.9762367 C40.5827812,3.9762367 40.7679492,4.33322473 40.7679492,5.05202793 L40.7679492,8.55718085 L43.6044961,8.55718085 L43.6044961,5.19069814 C43.6044961,3.5578125 43.2718945,2.05021277 41.0105273,2.05021277 Z" id="Path" fill="#013A67"></path>
                    <path d="M44.526293,2.20402261 L44.526293,8.55718085 L47.3623008,8.55718085 L47.3623008,2.20402261 C47.3623008,2.20402261 46.8855,2.43089761 45.9469922,2.43089761 C45.0090234,2.43089761 44.526293,2.20402261 44.526293,2.20402261 Z" id="Path" fill="#2C333B"></path>
                    <ellipse id="Oval" fill="#2C333B" cx="45.9362109" cy="1.12779255" rx="1.73605078" ry="1"></ellipse>
                    <path d="M21.1107656,2.20402261 L21.1107656,8.55718085 L23.9467734,8.55718085 L23.9467734,2.20402261 C23.9467734,2.20402261 23.4699727,2.43089761 22.5314648,2.43089761 C21.5934961,2.43089761 21.1107656,2.20402261 21.1107656,2.20402261 Z" id="Path" fill="#013A67"></path>
                    <ellipse id="Oval" fill="#2C333B" cx="22.5204141" cy="1.12779255" rx="1.73578125" ry="1"></ellipse>
                    <path d="M65.7022852,2.04889628 C64.2443906,2.04889628 63.5762227,2.9390625 63.285668,3.44569149 C63.0934922,3.78073803 63.1031953,3.87925532 62.9635781,3.87925532 C62.7608906,3.87925532 62.9288086,3.61003324 63.0201797,3.29385638 C63.199957,2.67115691 63.0630352,2.19524601 63.0630352,2.19524601 L60.9852188,2.19524601 L60.9852188,10.3122806 L63.8212266,10.3122806 L63.8212266,7.73898271 C64.156793,8.20238697 64.7786016,8.69760638 65.7367852,8.69760638 C67.7873789,8.69760638 68.8196836,7.2850133 68.8196836,5.37632314 C68.8199531,3.21333112 67.5844219,2.04889628 65.7022852,2.04889628 Z M64.9238789,7.19044548 C64.2732305,7.19044548 63.7948125,6.51881649 63.7948125,5.5834508 C63.7948125,4.67463431 64.2864375,3.97645612 64.9012383,3.97645612 C65.6906953,3.97645612 66.0270703,4.56580452 66.0270703,5.5834508 C66.0270703,6.64190824 65.7165703,7.19044548 64.9238789,7.19044548 Z" id="Shape" fill="#013A67"></path>
                </g>
                <path d="M98.531407,102 L8.46859296,102 C3.79903769,102 0,99.0096224 0,95.3340249 L0,6.6659751 C0,2.99037759 3.79903769,0 8.46859296,0 L98.531407,0 C103.200962,0 107,2.99037759 107,6.6659751 L107,95.3340249 C107,99.0096224 103.200962,102 98.531407,102 Z M8.46859296,1.05809129 C4.54024121,1.05809129 1.34422111,3.57380913 1.34422111,6.6659751 L1.34422111,95.3340249 C1.34422111,98.4261909 4.54024121,100.941909 8.46859296,100.941909 L98.531407,100.941909 C102.459759,100.941909 105.655779,98.4261909 105.655779,95.3340249 L105.655779,6.6659751 C105.655779,3.57380913 102.459759,1.05809129 98.531407,1.05809129 L8.46859296,1.05809129 Z" id="Shape" fill="#013A67"></path>
                <g id="Group" transform="translate(34.000000, 84.000000)">
                    <path d="M0.148266667,0.134347826 L2.66826667,0.134347826 C4.3,0.134347826 4.612,0.995217391 4.612,1.57565217 C4.612,2.14956522 4.3,3.01043478 2.66826667,3.00369565 L1.14826667,3.00369565 L1.14826667,4.79065217 L0.148266667,4.79065217 L0.148266667,0.134347826 L0.148266667,0.134347826 Z M1.14826667,2.33869565 L2.61226667,2.33869565 C3.06026667,2.33869565 3.61226667,2.15608696 3.61226667,1.56913043 C3.61226667,0.956086957 3.15626667,0.799565217 2.62826667,0.799565217 L1.14826667,0.799565217 L1.14826667,2.33869565 Z" id="Shape" fill="#2C333B"></path>
                    <path d="M7.196,0.134347826 L8.26,0.134347826 L10.4597333,4.79065217 L9.38773333,4.79065217 L8.85173333,3.55804348 L6.57173333,3.55804348 L6.03573333,4.79065217 L5.00373333,4.79065217 L7.196,0.134347826 Z M6.84426667,2.93869565 L8.588,2.93869565 L7.732,0.936521739 L7.708,0.936521739 L6.84426667,2.93869565 Z" id="Shape" fill="#013A67"></path>
                    <path d="M11.596,0.134347826 L14.3237333,0.134347826 C15.572,0.134347826 16.2117333,0.603913043 16.2117333,1.39304348 C16.2117333,2.28630435 15.4517333,2.51456522 15.2677333,2.56673913 L15.2677333,2.57978261 C15.6117333,2.61913043 16.116,2.82782609 16.116,3.56456522 C16.116,4.10586957 16.2117333,4.60152174 16.428,4.79065217 L15.3557333,4.79065217 C15.204,4.58847826 15.204,4.33413043 15.204,4.10608696 C15.204,3.25152174 14.9877333,2.87347826 14.0677333,2.87347826 L12.5957333,2.87347826 L12.5957333,4.79065217 L11.5957333,4.79065217 L11.5957333,0.134347826 L11.596,0.134347826 Z M12.596,2.25369565 L14.236,2.25369565 C14.8677333,2.25369565 15.2117333,1.99934783 15.2117333,1.51021739 C15.2117333,0.916956522 14.7397333,0.799347826 14.2197333,0.799347826 L12.5957333,0.799347826 L12.5957333,2.25369565 L12.596,2.25369565 Z" id="Shape" fill="#2C333B"></path>
                    <polygon id="Path" fill="#2C333B" points="17.1562667 0.134347826 21.78 0.134347826 21.78 0.838478261 19.964 0.838478261 19.964 4.79065217 18.964 4.79065217 18.964 0.838478261 17.1562667 0.838478261"></polygon>
                    <polygon id="Path" fill="#2C333B" points="22.988 0.134347826 24.044 0.134347826 26.6517333 3.56456522 26.668 3.56456522 26.668 0.134347826 27.6197333 0.134347826 27.6197333 4.79065217 26.5637333 4.79065217 23.964 1.36695652 23.94 1.36695652 23.94 4.79065217 22.988 4.79065217"></polygon>
                    <polygon id="Path" fill="#2C333B" points="29.388 0.134347826 33.4997333 0.134347826 33.4997333 0.838478261 30.3877333 0.838478261 30.3877333 2.05804348 33.2677333 2.05804348 33.2677333 2.72326087 30.3877333 2.72326087 30.3877333 4.08630435 33.5557333 4.08630435 33.5557333 4.79065217 29.388 4.79065217 29.388 0.134347826"></polygon>
                    <path d="M35.02,0.134347826 L37.7477333,0.134347826 C38.9957333,0.134347826 39.6354667,0.603913043 39.6354667,1.39304348 C39.6354667,2.28630435 38.8754667,2.51456522 38.6917333,2.56673913 L38.6917333,2.57978261 C39.0354667,2.61913043 39.5397333,2.82782609 39.5397333,3.56456522 C39.5397333,4.10586957 39.6354667,4.60152174 39.8517333,4.79065217 L38.7794667,4.79065217 C38.6277333,4.58847826 38.6277333,4.33413043 38.6277333,4.10608696 C38.6277333,3.25152174 38.4114667,2.87347826 37.4917333,2.87347826 L36.0194667,2.87347826 L36.0194667,4.79065217 L35.0197333,4.79065217 L35.0197333,0.134347826 L35.02,0.134347826 Z M36.0197333,2.25369565 L37.6597333,2.25369565 C38.2917333,2.25369565 38.6354667,1.99934783 38.6354667,1.51021739 C38.6354667,0.916956522 38.1634667,0.799347826 37.6434667,0.799347826 L36.0194667,0.799347826 L36.0194667,2.25369565 L36.0197333,2.25369565 Z" id="Shape" fill="#2C333B"></path>
                </g>
            </g>
        </g>
    </g>
</svg>