<?xml version="1.0" encoding="UTF-8"?>
<svg width="323px" height="55px" viewBox="0 0 323 55" version="1.1" xmlns="http://www.w3.org/2000/svg" xmlns:xlink="http://www.w3.org/1999/xlink">
    <title>shopify-expert</title>
    <g id="Page-1" stroke="none" stroke-width="1" fill="none" fill-rule="evenodd">
        <g id="About-Us" transform="translate(-307.000000, -2015.000000)" fill-rule="nonzero">
            <g id="shopify-expert" transform="translate(307.000000, 2015.000000)">
                <g id="Group">
                    <g>
                        <path d="M41.2291391,10.5231214 C41.197351,10.2687861 40.9430464,10.1098266 40.7523179,10.0780347 C40.5615894,10.0462428 36.4609272,9.76011561 36.4609272,9.76011561 C36.4609272,9.76011561 33.6,6.93063584 33.2821192,6.61271676 C32.9642384,6.29479769 32.3602649,6.39017341 32.1059603,6.45375723 C32.0741722,6.45375723 31.4701987,6.64450867 30.5165563,6.96242775 C29.5629139,4.2283237 27.8781457,1.6849711 24.9218543,1.6849711 C24.8264901,1.6849711 24.7629139,1.6849711 24.6675497,1.6849711 C23.8410596,0.572254335 22.792053,0.0953757225 21.8701987,0.0953757225 C14.9721854,0.0953757225 11.6662252,8.71098266 10.6490066,13.0982659 C7.97880795,13.9248555 6.07152318,14.5289017 5.81721854,14.5924855 C4.32317881,15.0693642 4.25960265,15.1011561 4.06887417,16.5317919 C3.90993377,17.6127168 0,47.8786127 0,47.8786127 L30.5165563,53.6011561 L47.0464881,50.0404624 C47.0781457,50.0086705 41.2927152,10.7774566 41.2291391,10.5231214 Z M28.8635762,7.47109827 C28.1006623,7.69364162 27.2423841,7.97976879 26.2887417,8.26589595 C26.2887417,8.07514451 26.2887417,7.91618497 26.2887417,7.69364162 C26.2887417,5.97687861 26.0662252,4.60982659 25.6847682,3.52890173 C27.1788079,3.75144509 28.1960265,5.46820809 28.8635762,7.47109827 Z M23.7774834,3.87861272 C24.1907285,4.92774566 24.4768212,6.45375723 24.4768212,8.52023121 C24.4768212,8.61560694 24.4768212,8.71098266 24.4768212,8.80635838 C22.792053,9.3150289 20.9801325,9.88728324 19.1364238,10.4595376 C20.1536424,6.51734104 22.0927152,4.60982659 23.7774834,3.87861272 Z M21.7112583,1.93930636 C21.997351,1.93930636 22.3152318,2.03468208 22.6013245,2.22543353 C20.3761589,3.27456647 18.0238411,5.88150289 17.0066225,11.1271676 C15.5443709,11.5722543 14.1139073,12.017341 12.7788079,12.4306358 C13.986755,8.4566474 16.7523179,1.93930636 21.7112583,1.93930636 Z" id="Shape" fill="#013A67"></path>
                        <path d="M40.784106,10.0780347 C40.5933775,10.0462428 36.4927152,9.76011561 36.4927152,9.76011561 C36.4927152,9.76011561 33.6317881,6.93063584 33.3139073,6.61271676 C33.186755,6.48554913 33.0278146,6.42196532 32.8688742,6.42196532 L30.5483444,53.6011561 L47.0781457,50.0404624 C47.0781457,50.0404624 41.2609272,10.8092486 41.2291391,10.5231214 C41.197351,10.2369942 40.9748344,10.1098266 40.784106,10.0780347 Z" id="Path" fill="#013A67"></path>
                        <path d="M24.9536424,19.2023121 L22.8874172,25.2745665 C22.8874172,25.2745665 21.1072848,24.3208092 18.9139073,24.3208092 C15.7033113,24.3208092 15.5443709,26.3236994 15.5443709,26.8323699 C15.5443709,29.5982659 22.7602649,30.6473988 22.7602649,37.132948 C22.7602649,42.2514451 19.5178808,45.5260116 15.1629139,45.5260116 C9.91788079,45.5260116 7.24768212,42.2514451 7.24768212,42.2514451 L8.64635762,37.6098266 C8.64635762,37.6098266 11.4119205,39.9624277 13.7324503,39.9624277 C15.2582781,39.9624277 15.8622517,38.7543353 15.8622517,37.8959538 C15.8622517,34.2716763 9.94966887,34.1127168 9.94966887,28.199422 C9.94966887,23.2080925 13.5417219,18.3757225 20.7576159,18.3757225 C23.5549669,18.4075145 24.9536424,19.2023121 24.9536424,19.2023121 Z" id="Path" fill="#FFFFFF"></path>
                    </g>
                    <path d="M66.3417219,30.583815 C64.6887417,29.6936416 63.8304636,28.9306358 63.8304636,27.9132948 C63.8304636,26.6098266 65.0066225,25.7514451 66.8503311,25.7514451 C68.9801325,25.7514451 70.8874172,26.6416185 70.8874172,26.6416185 L72.381457,22.0317919 C72.381457,22.0317919 70.9827815,20.9508671 66.9139073,20.9508671 C61.2238411,20.9508671 57.3139073,24.1936416 57.3139073,28.7716763 C57.3139073,31.3468208 59.1576159,33.349711 61.605298,34.7485549 C63.5761589,35.8930636 64.2754967,36.6878613 64.2754967,37.8641618 C64.2754967,39.1040462 63.2900662,40.0895954 61.4463576,40.0895954 C58.7125828,40.0895954 56.1377483,38.6907514 56.1377483,38.6907514 L54.5483444,43.300578 C54.5483444,43.300578 56.9324503,44.8901734 60.9377483,44.8901734 C66.786755,44.8901734 70.9827815,42.0289017 70.9827815,36.8468208 C71.0145695,34.017341 68.8847682,32.0462428 66.3417219,30.583815 Z" id="s_2_" fill="#013A67"></path>
                    <path d="M89.610596,20.8872832 C86.7496689,20.8872832 84.4927152,22.2543353 82.7443709,24.3208092 L82.6490066,24.2890173 L85.1602649,11.2543353 L78.6754967,11.2543353 L72.3496689,44.4768786 L78.8344371,44.4768786 L80.9960265,33.1271676 C81.8543046,28.8352601 84.0476821,26.1965318 86.1139073,26.1965318 C87.5761589,26.1965318 88.1483444,27.1820809 88.1483444,28.6127168 C88.1483444,29.5028902 88.0529801,30.583815 87.8622517,31.4739884 L85.4145695,44.4768786 L91.8993377,44.4768786 L94.4423841,31.0606936 C94.7284768,29.6618497 94.9192053,27.9450867 94.9192053,26.8323699 C94.9509934,23.0809249 93.0119205,20.8872832 89.610596,20.8872832 Z" id="h_2_" fill="#013A67"></path>
                    <path d="M109.637086,20.8872832 C101.817219,20.8872832 96.6357616,27.9450867 96.6357616,35.8294798 C96.6357616,40.8843931 99.7509934,44.9219653 105.6,44.9219653 C113.292715,44.9219653 118.442384,38.0549133 118.442384,29.9797688 C118.442384,25.3063584 115.708609,20.8872832 109.637086,20.8872832 Z M106.42649,39.8988439 C104.201325,39.8988439 103.27947,38.0231214 103.27947,35.6705202 C103.27947,31.9508671 105.218543,25.8786127 108.74702,25.8786127 C111.06755,25.8786127 111.798675,27.849711 111.798675,29.7890173 C111.798675,33.7947977 109.859603,39.8988439 106.42649,39.8988439 Z" id="o_2_" fill="#013A67"></path>
                    <path d="M135.06755,20.8872832 C130.680795,20.8872832 128.201325,24.734104 128.201325,24.734104 L128.10596,24.734104 L128.487417,21.2369942 L122.733775,21.2369942 C122.447682,23.5895954 121.939073,27.1820809 121.430464,29.8526012 L116.916556,53.632948 L123.401325,53.632948 L125.181457,44.0317919 L125.308609,44.0317919 C125.308609,44.0317919 126.643709,44.8901734 129.123179,44.8901734 C136.752318,44.8901734 141.743046,37.0693642 141.743046,29.1531792 C141.743046,24.7976879 139.835762,20.8872832 135.06755,20.8872832 Z M128.837086,39.9942197 C127.152318,39.9942197 126.166887,39.0404624 126.166887,39.0404624 L127.247682,32.9682081 C128.010596,28.9306358 130.108609,26.2283237 132.365563,26.2283237 C134.336424,26.2283237 134.940397,28.0722543 134.940397,29.8208092 C134.972185,34.017341 132.460927,39.9942197 128.837086,39.9942197 Z" id="p_2_" fill="#013A67"></path>
                    <path d="M151.025166,11.5404624 C148.95894,11.5404624 147.30596,13.1936416 147.30596,15.3236994 C147.30596,17.2630058 148.545695,18.566474 150.357616,18.566474 L150.45298,18.566474 C152.487417,18.566474 154.235762,17.199422 154.26755,14.783237 C154.26755,12.9075145 152.996026,11.5404624 151.025166,11.5404624 Z" id="dot_2_" fill="#013A67"></path>
                    <polygon id="i_2_" fill="#013A67" points="141.933775 44.4450867 148.450331 44.4450867 152.868874 21.3959538 146.32053 21.3959538"></polygon>
                    <path d="M169.398675,21.3641618 L164.884768,21.3641618 L165.107285,20.283237 C165.488742,18.0578035 166.792053,16.0867052 168.953642,16.0867052 C170.098013,16.0867052 171.019868,16.4046243 171.019868,16.4046243 L172.291391,11.3179191 C172.291391,11.3179191 171.14702,10.7456647 168.762914,10.7456647 C166.442384,10.7456647 164.153642,11.4132948 162.405298,12.9075145 C160.180132,14.783237 159.162914,17.517341 158.622517,20.2514451 L158.431788,21.3323699 L155.443709,21.3323699 L154.490066,26.2283237 L157.509934,26.2283237 L154.076821,44.4132948 L160.561589,44.4132948 L164.02649,26.2601156 L168.508609,26.2601156 L169.398675,21.3641618 Z" id="f_2_" fill="#013A67"></path>
                    <path d="M185.038411,21.3959538 C185.038411,21.3959538 180.969536,31.632948 179.157616,37.2283237 L179.062252,37.2283237 C178.935099,35.416185 177.472848,21.3959538 177.472848,21.3959538 L170.638411,21.3959538 L174.548344,42.5375723 C174.643709,43.0144509 174.580132,43.300578 174.421192,43.6184971 C173.658278,45.0809249 172.386755,46.4797688 170.892715,47.5289017 C169.65298,48.4190751 168.317881,48.9913295 167.205298,49.3728324 L168.98543,54.8728324 C170.288742,54.5867052 173.022517,53.5057803 175.343046,51.3439306 C178.299338,48.5780347 181.033113,44.2861272 183.862252,38.4364162 L191.809272,21.3959538 L185.038411,21.3959538 L185.038411,21.3959538 Z" id="y_2_" fill="#013A67"></path>
                </g>
                <g id="Group" transform="translate(200.000000, 16.000000)" fill="#013A67">
                    <path d="M15.1678756,27.3663866 C13.4471503,28.3243697 10.9935233,29.0907563 8.22124352,29.0907563 C2.51735751,29.0907563 0.19119171,25.0352941 0.19119171,20.1176471 C0.19119171,13.3798319 4.84352332,5.07731092 11.9813472,5.07731092 C16.0601036,5.07731092 18.1313472,7.69579832 18.1313472,10.7932773 C18.1313472,16.7008403 11.8857513,18.5210084 4.04689119,18.4252101 C3.91943005,19.3193277 3.95129534,21.6184874 4.42927461,22.8957983 C5.22590674,24.9394958 6.85103627,25.9613445 9.08160622,25.9613445 C11.5033679,25.9613445 13.3196891,25.194958 14.6580311,24.492437 L15.1678756,27.3663866 Z M14.4987047,10.9210084 C14.4987047,9.16470588 13.2559585,8.14285714 11.4396373,8.14285714 C8.15751295,8.14285714 5.54455959,11.4957983 4.49300518,15.487395 C9.91010363,15.5193277 14.4987047,14.5932773 14.4987047,10.9529412 L14.4987047,10.9210084 Z" id="Shape"></path>
                    <path d="M25.0779793,5.58823529 L27.0217617,10.6016807 C27.5316062,12.1344538 27.9139896,13.3159664 28.3601036,14.4016807 L28.4556995,14.4016807 C29.3160622,13.0605042 29.8896373,12.1663866 30.8774611,10.7613445 L34.7650259,5.55630252 L39.0349741,5.55630252 L29.9852332,16.9243697 L34.7331606,28.6436975 L30.6544041,28.6436975 L28.7106218,23.4386555 C28.1051813,21.8739496 27.7546632,20.9159664 27.2766839,19.3512605 L27.1492228,19.3512605 C26.4800518,20.5008403 25.7790155,21.6504202 24.823057,23.0235294 L20.6805699,28.6436975 L16.3468912,28.6436975 L25.7790155,16.8285714 L21.0310881,5.58823529 L25.0779793,5.58823529 Z" id="Path"></path>
                    <path d="M35.9759067,38 L40.5963731,13.7630252 C41.1062176,10.8571429 41.5523316,7.75966387 41.8709845,5.55630252 L45.3124352,5.55630252 L44.7069948,9.70756303 L44.8025907,9.70756303 C46.7463731,6.83361345 49.5186528,5.07731092 52.4183938,5.07731092 C56.8795337,5.07731092 58.6639896,8.87731092 58.6639896,12.9008403 C58.6639896,20.7243697 53.4699482,29.1226891 46.0453368,29.1226891 C44.0059585,29.1226891 42.5082902,28.6436975 41.711658,28.1647059 L41.6160622,28.1647059 L39.7678756,38 L35.9759067,38 Z M42.2533679,24.9714286 C43.1137306,25.6739496 44.388342,26.1210084 45.9816062,26.1210084 C51.1119171,26.1210084 54.680829,18.4890756 54.680829,13.2521008 C54.680829,10.8571429 53.8204663,8.30252101 50.9207254,8.30252101 C48.0528497,8.30252101 44.6432642,11.9428571 43.5279793,17.7546218 L42.2533679,24.9714286 Z" id="Shape"></path>
                    <path d="M75.8712435,27.3663866 C74.1505181,28.3243697 71.6968912,29.0907563 68.9246114,29.0907563 C63.2207254,29.0907563 60.8945596,25.0352941 60.8945596,20.1176471 C60.8945596,13.3798319 65.5468912,5.07731092 72.684715,5.07731092 C76.7634715,5.07731092 78.834715,7.69579832 78.834715,10.7932773 C78.834715,16.7008403 72.5891192,18.5210084 64.7502591,18.4252101 C64.6227979,19.3193277 64.6546632,21.6184874 65.1326425,22.8957983 C65.9292746,24.9394958 67.5544041,25.9613445 69.7849741,25.9613445 C72.2067358,25.9613445 74.023057,25.194958 75.361399,24.492437 L75.8712435,27.3663866 Z M75.2020725,10.9210084 C75.2020725,9.16470588 73.9593264,8.14285714 72.1430052,8.14285714 C68.8608808,8.14285714 66.2479275,11.4957983 65.1963731,15.487395 C70.6134715,15.5193277 75.2020725,14.5932773 75.2020725,10.9529412 L75.2020725,10.9210084 Z" id="Shape"></path>
                    <path d="M79.8544041,28.6756303 L82.7222798,13.6033613 C83.2958549,10.6016807 83.6145078,7.6 83.8056995,5.58823529 L87.1515544,5.58823529 C87.0240933,7.05714286 86.8647668,8.58991597 86.6417098,10.410084 L86.7373057,10.410084 C88.2349741,7.34453782 90.5292746,5.1092437 93.3971503,5.1092437 C93.7158031,5.1092437 94.0981865,5.14117647 94.3849741,5.14117647 L93.6202073,8.94117647 C93.4290155,8.9092437 93.1103627,8.9092437 92.7598446,8.9092437 C89.4139896,8.9092437 86.5779793,13.092437 85.653886,17.8823529 L83.6145078,28.6756303 L79.8544041,28.6756303 Z" id="Path"></path>
                    <path d="M104.709326,0.0957983193 L103.657772,5.58823529 L108.788083,5.58823529 L108.214508,8.55798319 L103.020466,8.55798319 L100.821762,20.3731092 C100.598705,21.6184874 100.407513,22.8 100.407513,23.8218487 C100.407513,25.1630252 100.981088,25.9294118 102.415026,25.9294118 C103.084197,25.9294118 103.657772,25.897479 104.135751,25.8016807 L103.94456,28.7714286 C103.179793,28.994958 102.096373,29.1546218 101.044819,29.1546218 C97.8901554,29.1546218 96.5199482,27.2386555 96.5199482,24.907563 C96.5199482,23.7260504 96.6474093,22.4806723 96.9979275,20.7563025 L99.3240933,8.58991597 L96.1694301,8.58991597 L96.7430052,5.62016807 L99.8976684,5.62016807 L100.694301,1.46890756 L104.709326,0.0957983193 Z" id="Path"></path>
                    <path d="M108.341969,24.8117647 C109.297927,25.4184874 111.050518,26.1529412 112.866839,26.1529412 C115.447927,26.1529412 117.041192,24.4285714 117.041192,22.3210084 C117.041192,20.4689076 116.180829,19.2554622 114.07772,17.9781513 C111.751554,16.5411765 110.285751,14.497479 110.285751,12.1663866 C110.285751,8.20672269 113.567876,5.1092437 118.283938,5.1092437 C120.195855,5.1092437 121.85285,5.62016807 122.713212,6.16302521 L121.629793,9.06890756 C120.865026,8.65378151 119.590415,8.11092437 118.092746,8.11092437 C115.670984,8.11092437 114.109585,9.64369748 114.109585,11.5915966 C114.109585,13.3478992 115.193005,14.3697479 116.977461,15.487395 C119.303627,16.9563025 120.928756,19.0319328 120.928756,21.5546218 C120.928756,26.4722689 117.200518,29.0907563 112.548187,29.0907563 C110.253886,29.0907563 108.182642,28.3243697 107.258549,27.6218487 L108.341969,24.8117647 Z" id="Path"></path>
                </g>
            </g>
        </g>
    </g>
</svg>